# Blender v2.76 (sub 0) OBJ File: 'flat_torus.blend'
# www.blender.org
v 0.000000 -0.783494 -0.125000
v 0.102266 -0.776791 -0.125000
v 0.202783 -0.756797 -0.125000
v 0.299830 -0.723854 -0.125000
v 0.391747 -0.678525 -0.125000
v 0.476961 -0.621587 -0.125000
v 0.554014 -0.554014 -0.125000
v 0.621587 -0.476961 -0.125000
v 0.678525 -0.391747 -0.125000
v 0.723854 -0.299830 -0.125000
v 0.756797 -0.202783 -0.125000
v 0.776791 -0.102266 -0.125000
v 0.783494 -0.000000 -0.125000
v 0.776791 0.102267 -0.125000
v 0.756797 0.202783 -0.125000
v 0.723854 0.299830 -0.125000
v 0.678525 0.391747 -0.125000
v 0.621587 0.476961 -0.125000
v 0.554013 0.554014 -0.125000
v 0.476961 0.621587 -0.125000
v 0.391747 0.678525 -0.125000
v 0.299830 0.723854 -0.125000
v 0.202783 0.756797 -0.125000
v 0.102266 0.776791 -0.125000
v 0.000000 0.783494 -0.125000
v -0.102267 0.776791 -0.125000
v -0.202783 0.756797 -0.125000
v -0.299830 0.723854 -0.125000
v -0.391747 0.678526 -0.125000
v -0.476961 0.621587 -0.125000
v -0.554014 0.554014 -0.125000
v -0.621587 0.476961 -0.125000
v -0.678525 0.391747 -0.125000
v -0.723854 0.299830 -0.125000
v -0.756797 0.202783 -0.125000
v -0.776791 0.102267 -0.125000
v -0.783494 -0.000000 -0.125000
v -0.776791 -0.102266 -0.125000
v -0.756797 -0.202783 -0.125000
v -0.723854 -0.299830 -0.125000
v -0.678525 -0.391747 -0.125000
v -0.621587 -0.476961 -0.125000
v -0.554014 -0.554013 -0.125000
v -0.476961 -0.621587 -0.125000
v -0.391747 -0.678525 -0.125000
v -0.299830 -0.723854 -0.125000
v -0.202783 -0.756797 -0.125000
v -0.102266 -0.776791 -0.125000
v 0.000000 -0.783494 0.004854
v 0.102266 -0.776791 0.004854
v 0.202783 -0.756797 0.004854
v 0.299830 -0.723854 0.004854
v 0.391747 -0.678525 0.004854
v 0.476961 -0.621587 0.004854
v 0.554014 -0.554014 0.004854
v 0.621587 -0.476961 0.004854
v 0.678525 -0.391747 0.004854
v 0.723854 -0.299830 0.004854
v 0.756797 -0.202783 0.004854
v 0.776791 -0.102266 0.004854
v 0.783494 -0.000000 0.004854
v 0.776791 0.102267 0.004854
v 0.756797 0.202783 0.004854
v 0.723854 0.299830 0.004854
v 0.678525 0.391747 0.004854
v 0.621587 0.476961 0.004854
v 0.554013 0.554014 0.004854
v 0.476961 0.621587 0.004854
v 0.391747 0.678525 0.004854
v 0.299830 0.723854 0.004854
v 0.202783 0.756797 0.004854
v 0.102266 0.776791 0.004854
v 0.000000 0.783494 0.004854
v -0.102267 0.776791 0.004854
v -0.202783 0.756797 0.004854
v -0.299830 0.723854 0.004854
v -0.391747 0.678526 0.004854
v -0.476961 0.621587 0.004854
v -0.554014 0.554014 0.004854
v -0.621587 0.476961 0.004854
v -0.678525 0.391747 0.004854
v -0.723854 0.299830 0.004854
v -0.756797 0.202783 0.004854
v -0.776791 0.102267 0.004854
v -0.783494 -0.000000 0.004854
v -0.776791 -0.102266 0.004854
v -0.756797 -0.202783 0.004854
v -0.723854 -0.299830 0.004854
v -0.678525 -0.391747 0.004854
v -0.621587 -0.476961 0.004854
v -0.554014 -0.554013 0.004854
v -0.476961 -0.621587 0.004854
v -0.391747 -0.678525 0.004854
v -0.299830 -0.723854 0.004854
v -0.202783 -0.756797 0.004854
v -0.102266 -0.776791 0.004854
vt 0.326733 0.469228
vt 0.471598 0.339345
vt 0.285638 0.277090
vt 0.275391 0.287722
vt 0.266480 0.299486
vt 0.259368 0.312441
vt 0.253835 0.326145
vt 0.250136 0.340479
vt 0.248532 0.355225
vt 0.248855 0.370057
vt 0.250897 0.384752
vt 0.255030 0.399017
vt 0.260982 0.412623
vt 0.268479 0.425444
vt 0.277730 0.437071
vt 0.288269 0.447523
vt 0.300174 0.456359
vt 0.313094 0.463562
vt 0.340977 0.473088
vt 0.355616 0.474857
vt 0.370323 0.474686
vt 0.384843 0.472589
vt 0.398941 0.468616
vt 0.412471 0.463032
vt 0.425162 0.455702
vt 0.436665 0.446583
vt 0.446874 0.436032
vt 0.455773 0.424357
vt 0.462916 0.411495
vt 0.468497 0.397861
vt 0.472066 0.383525
vt 0.473909 0.368855
vt 0.473618 0.354038
vt 0.467687 0.324995
vt 0.445079 0.286722
vt 0.461935 0.311241
vt 0.454294 0.298426
vt 0.434452 0.276331
vt 0.422703 0.267285
vt 0.409790 0.260031
vt 0.396150 0.254356
vt 0.381890 0.250457
vt 0.367236 0.248542
vt 0.352460 0.248566
vt 0.337803 0.250516
vt 0.323508 0.254373
vt 0.309903 0.260263
vt 0.297205 0.267883
vn 0.000000 -0.000000 -1.000000
s off
f 62/1/1 94/2/1 78/3/1
f 78/3/1 77/4/1 76/5/1
f 76/5/1 75/6/1 78/3/1
f 74/7/1 73/8/1 72/9/1
f 72/9/1 71/10/1 74/7/1
f 70/11/1 69/12/1 68/13/1
f 68/13/1 67/14/1 70/11/1
f 66/15/1 65/16/1 64/17/1
f 64/17/1 63/18/1 62/1/1
f 62/1/1 61/19/1 60/20/1
f 60/20/1 59/21/1 58/22/1
f 58/22/1 57/23/1 56/24/1
f 56/24/1 55/25/1 58/22/1
f 54/26/1 53/27/1 52/28/1
f 52/28/1 51/29/1 54/26/1
f 50/30/1 49/31/1 96/32/1
f 96/32/1 95/33/1 50/30/1
f 94/2/1 93/34/1 90/35/1
f 92/36/1 91/37/1 90/35/1
f 90/35/1 89/38/1 88/39/1
f 88/39/1 87/40/1 86/41/1
f 86/41/1 85/42/1 84/43/1
f 84/43/1 83/44/1 82/45/1
f 82/45/1 81/46/1 80/47/1
f 80/47/1 79/48/1 82/45/1
f 78/3/1 75/6/1 74/7/1
f 74/7/1 71/10/1 70/11/1
f 70/11/1 67/14/1 66/15/1
f 66/15/1 64/17/1 70/11/1
f 62/1/1 60/20/1 58/22/1
f 58/22/1 55/25/1 54/26/1
f 54/26/1 51/29/1 50/30/1
f 50/30/1 95/33/1 94/2/1
f 93/34/1 92/36/1 90/35/1
f 90/35/1 88/39/1 94/2/1
f 86/41/1 84/43/1 82/45/1
f 82/45/1 79/48/1 78/3/1
f 78/3/1 74/7/1 70/11/1
f 70/11/1 64/17/1 62/1/1
f 62/1/1 58/22/1 94/2/1
f 54/26/1 50/30/1 94/2/1
f 94/2/1 88/39/1 86/41/1
f 86/41/1 82/45/1 94/2/1
f 78/3/1 70/11/1 62/1/1
f 58/22/1 54/26/1 94/2/1
f 94/2/1 82/45/1 78/3/1
